# xmcd
#
# Track frame offsets:
# 182
# 12720
# 23197
# 34647
# 47360
# 58277
# 73570
# 86030
# 98860
# 109110
# 121132
# 132187
# 143637
# 156727
#
# Disc length: 2289 seconds
#
#
# Revision: 0
# Processed by: cddbd v1.5PL3 Copyright (c) Steve Scherf et al.
# Submitted via: FreeRIP 2.51 
#
DISCID=c108ef0e
DTITLE=Howlin' Wolf - 28 Great Blues Ballads - CD1
DYEAR=1993
DGENRE=Blues
TTITLE0=Spoonful
TTITLE1=Who's been talking
TTITLE2=Howlin' for my darling
TTITLE3=Back door man
TTITLE4=Red Rooster
TTITLE5=Goin' down slow
TTITLE6=Highway 49
TTITLE7=Ain't superstitious
TTITLE8=Do the do
TTITLE9=Dorothy Mae
TTITLE10=You'll be mine
TTITLE11=Poor boy
TTITLE12=Worried about you
TTITLE13=Commit a crime
EXTD=2CD
EXTT0=
EXTT1=
EXTT2=
EXTT3=
EXTT4=
EXTT5=
EXTT6=
EXTT7=
EXTT8=
EXTT9=
EXTT10=
EXTT11=
EXTT12=
EXTT13=
PLAYORDER=
